<svg xmlns="http://www.w3.org/2000/svg" width="26" height="26" viewBox="0 0 26 26"><defs><style>.a{fill:none;stroke:#282828;stroke-linecap:round;stroke-linejoin:round;}</style></defs><g transform="translate(-7 -7)"><path class="a" d="M20,21.667V7.5"/><path class="a" d="M20,32.5V28.333" transform="translate(0 0)"/><path class="a" d="M20,21.667A3.333,3.333,0,1,1,16.667,25,3.331,3.331,0,0,1,20,21.667Z" transform="translate(0 0)"/><path class="a" d="M10.833,20V32.5" transform="translate(0)"/><path class="a" d="M10.833,7.5v5.833" transform="translate(0)"/><path class="a" d="M10.833,13.333A3.333,3.333,0,1,1,7.5,16.667,3.333,3.333,0,0,1,10.833,13.333Z" transform="translate(0 0)"/><path class="a" d="M29.167,20V32.5" transform="translate(0)"/><path class="a" d="M29.167,7.5v5.833" transform="translate(0)"/><path class="a" d="M29.167,13.333a3.333,3.333,0,1,1-3.334,3.334A3.333,3.333,0,0,1,29.167,13.333Z" transform="translate(0 0)"/></g></svg>