<svg xmlns="http://www.w3.org/2000/svg" width="25.004" height="25.033" viewBox="0 0 25.004 25.033"><defs><style>.a{fill:none;stroke:#282828;stroke-linecap:round;stroke-linejoin:round;}</style></defs><g transform="translate(-1.167 -1.167)"><path class="a" d="M3.849,1.667H19.122A2.181,2.181,0,0,1,21.3,3.849V19.122A2.182,2.182,0,0,1,19.122,21.3H3.849a2.181,2.181,0,0,1-2.182-2.182V3.849A2.181,2.181,0,0,1,3.849,1.667Z"/><path class="a" d="M1.667,25H21.3" transform="translate(0 -8.06)"/><path class="a" d="M12.85,25.911l11.226,2.142a2.181,2.181,0,0,0,2.551-1.733l2.864-15a2.182,2.182,0,0,0-1.733-2.553h0l-.409-.077" transform="translate(-3.863 -2.425)"/></g></svg>