<svg xmlns="http://www.w3.org/2000/svg" width="26" height="26" viewBox="0 0 26 26"><defs><style>.a{fill:none;stroke:#282828;stroke-linecap:round;stroke-linejoin:round;}</style></defs><g transform="translate(-0.333 -0.333)"><path class="a" d="M13.333.833a12.5,12.5,0,1,1-12.5,12.5A12.5,12.5,0,0,1,13.333.833Z"/><path class="a" d="M17.971,14.167a3.8,3.8,0,1,1-3.8,3.8A3.8,3.8,0,0,1,17.971,14.167Z" transform="translate(-4.638 -4.638)"/><path class="a" d="M19.746,22.532a7.608,7.608,0,1,1-3.8-14.2c10.326,0,9.782,11.413,5.434,11.413-1.63,0-1.63-1.087-1.63-1.63V12.681" transform="translate(-2.609 -2.609)"/></g></svg>