<svg xmlns="http://www.w3.org/2000/svg" width="31.666" height="25" viewBox="0 0 31.666 25"><defs><style>.a{fill:none;stroke:#282828;stroke-linecap:round;stroke-linejoin:round;}</style></defs><g transform="translate(-0.332 -4.5)"><path class="a" d="M16.165,5C24.633,5,31.5,10.372,31.5,17S24.633,29,16.165,29,.832,23.628.832,17,7.7,5,16.165,5Z"/><path class="a" d="M17.831,8.333c4.787,0,8.667,2.09,8.667,4.667s-3.88,4.666-8.667,4.666S9.165,15.577,9.165,13,13.045,8.333,17.831,8.333Z" transform="translate(-1.667 -0.667)"/><path class="a" d="M8.665,20.833a2,2,0,1,1-2,2A2,2,0,0,1,8.665,20.833Z" transform="translate(-1.167 -3.167)"/><path class="a" d="M16.373,26.314l2.357-2.358a.668.668,0,0,1,.943,0l2.569,2.57a.361.361,0,0,1,0,.509h0l-2.573,2.574a.668.668,0,0,1-.943,0l-2.357-2.358A.663.663,0,0,1,16.373,26.314Z" transform="translate(-3.069 -3.752)"/><path class="a" d="M31.165,20.833a2,2,0,1,1-2,2A2,2,0,0,1,31.165,20.833Z" transform="translate(-5.667 -3.167)"/></g></svg>