<svg xmlns="http://www.w3.org/2000/svg" width="26.455" height="26.083" viewBox="0 0 26.455 26.083"><defs><style>.a{fill:none;stroke:#282828;stroke-linecap:round;stroke-linejoin:round;}</style></defs><g transform="translate(-0.333 -0.653)"><path class="a" d="M12.5,9.318V26.9" transform="translate(-3.92 -2.736)"/><path class="a" d="M24.167,12.116V1.175" transform="translate(-7.84)"/><path class="a" d="M15.22,19.547,8.9,24.06a.55.55,0,0,1-.644,0L1.065,18.922a.555.555,0,0,1-.232-.45V2.124a.554.554,0,0,1,.876-.449L8.58,6.583l7.425-5.3a.552.552,0,0,1,.644,0l7.193,5.139a.555.555,0,0,1,.231.45v5.249" transform="translate(0 -0.001)"/><path class="a" d="M30.26,20.985a4.427,4.427,0,0,1,4.427,4.427c0,1.971-2.878,5.8-3.993,7.209a.554.554,0,0,1-.777.091.532.532,0,0,1-.09-.091c-1.116-1.41-3.993-5.238-3.993-7.209A4.427,4.427,0,0,1,30.26,20.985Z" transform="translate(-8.399 -6.656)"/><path class="a" d="M31.66,25.152A1.66,1.66,0,1,1,30,26.812,1.661,1.661,0,0,1,31.66,25.152Z" transform="translate(-9.799 -8.056)"/></g></svg>